<?xml version="1.0" standalone="no"?>
<svg xmlns:xlink="http://www.w3.org/1999/xlink" id="wave" style="transform:rotate(0deg); transition: 0.3s" viewBox="0 0 1440 340" version="1.1" xmlns="http://www.w3.org/2000/svg"><defs><linearGradient id="sw-gradient-0" x1="0" x2="0" y1="1" y2="0"><stop stop-color="rgba(241, 235, 225, 1)" offset="0%"/><stop stop-color="rgba(101, 140, 94, 1)" offset="100%"/></linearGradient></defs><path style="transform:translate(0, 0px); opacity:1" fill="url(#sw-gradient-0)" d="M0,102L20,113.3C40,125,80,147,120,147.3C160,147,200,125,240,136C280,147,320,193,360,181.3C400,170,440,102,480,68C520,34,560,34,600,28.3C640,23,680,11,720,22.7C760,34,800,68,840,119C880,170,920,238,960,255C1000,272,1040,238,1080,192.7C1120,147,1160,91,1200,102C1240,113,1280,193,1320,198.3C1360,204,1400,136,1440,107.7C1480,79,1520,91,1560,130.3C1600,170,1640,238,1680,260.7C1720,283,1760,261,1800,226.7C1840,193,1880,147,1920,136C1960,125,2000,147,2040,175.7C2080,204,2120,238,2160,215.3C2200,193,2240,113,2280,85C2320,57,2360,79,2400,73.7C2440,68,2480,34,2520,56.7C2560,79,2600,159,2640,198.3C2680,238,2720,238,2760,226.7C2800,215,2840,193,2860,181.3L2880,170L2880,340L2860,340C2840,340,2800,340,2760,340C2720,340,2680,340,2640,340C2600,340,2560,340,2520,340C2480,340,2440,340,2400,340C2360,340,2320,340,2280,340C2240,340,2200,340,2160,340C2120,340,2080,340,2040,340C2000,340,1960,340,1920,340C1880,340,1840,340,1800,340C1760,340,1720,340,1680,340C1640,340,1600,340,1560,340C1520,340,1480,340,1440,340C1400,340,1360,340,1320,340C1280,340,1240,340,1200,340C1160,340,1120,340,1080,340C1040,340,1000,340,960,340C920,340,880,340,840,340C800,340,760,340,720,340C680,340,640,340,600,340C560,340,520,340,480,340C440,340,400,340,360,340C320,340,280,340,240,340C200,340,160,340,120,340C80,340,40,340,20,340L0,340Z"/></svg>